HIERARCHY
ROOT hip
{
  OFFSET 0 0 0
  CHANNELS 6 Xposition Yposition Zposition Zrotation Yrotation Xrotation
  JOINT abdomen
  {
    OFFSET 0 20.6881 -0.73152
    CHANNELS 3 Zrotation Xrotation Yrotation
    JOINT chest
    {
      OFFSET 0 11.7043 -0.48768
      CHANNELS 3 Zrotation Xrotation Yrotation
      JOINT neck
      {
        OFFSET 0 22.1894 -2.19456
        CHANNELS 3 Zrotation Xrotation Yrotation
        JOINT head
        {
          OFFSET -0.24384 7.07133 1.2192
          CHANNELS 3 Zrotation Xrotation Yrotation
          JOINT leftEye
          {
            OFFSET 4.14528 8.04674 8.04672
            CHANNELS 3 Zrotation Xrotation Yrotation
            End Site
            {
              OFFSET 1 0 0
            }
          }
          JOINT rightEye
          {
            OFFSET -3.6576 8.04674 8.04672
            CHANNELS 3 Zrotation Xrotation Yrotation
            End Site
            {
              OFFSET 1 0 0
            }
          }
        }
      }
      JOINT rCollar
      {
        OFFSET -2.68224 19.2634 -4.8768
        CHANNELS 3 Zrotation Xrotation Yrotation
        JOINT rShldr
        {
          OFFSET -8.77824 -1.95073 1.46304
          CHANNELS 3 Zrotation Xrotation Yrotation
          JOINT rForeArm
          {
            OFFSET -28.1742 -1.7115 0.48768
            CHANNELS 3 Zrotation Xrotation Yrotation
            JOINT rHand
            {
              OFFSET -22.5879 0.773209 7.07136
              CHANNELS 3 Zrotation Xrotation Yrotation
              JOINT rThumb1
              {
                OFFSET -1.2192 -0.487915 3.41376
                CHANNELS 3 Zrotation Xrotation Yrotation
                JOINT rThumb2
                {
                  OFFSET -3.37035 -0.52449 3.41376
                  CHANNELS 3 Zrotation Xrotation Yrotation
                  End Site
                  {
                    OFFSET -1.78271 -1.18214 1.43049
                  }
                }
              }
              JOINT rIndex1
              {
                OFFSET -7.75947 0.938293 5.60832
                CHANNELS 3 Zrotation Xrotation Yrotation
                JOINT rIndex2
                {
                  OFFSET -2.54057 -0.884171 1.56538
                  CHANNELS 3 Zrotation Xrotation Yrotation
                  End Site
                  {
                    OFFSET -1.62519 -0.234802 1.16502
                  }
                }
              }
              JOINT rMid1
              {
                OFFSET -8.24714 1.18213 3.41376
                CHANNELS 3 Zrotation Xrotation Yrotation
                JOINT rMid2
                {
                  OFFSET -3.10165 -0.590103 1.0647
                  CHANNELS 3 Zrotation Xrotation Yrotation
                  End Site
                  {
                    OFFSET -2.48547 -0.328903 0.83742
                  }
                }
              }
              JOINT rRing1
              {
                OFFSET -8.82822 0.546677 1.51678
                CHANNELS 3 Zrotation Xrotation Yrotation
                JOINT rRing2
                {
                  OFFSET -2.60934 -0.819778 -0.0198488
                  CHANNELS 3 Zrotation Xrotation Yrotation
                  End Site
                  {
                    OFFSET -2.33842 -0.294052 0.168128
                  }
                }
              }
              JOINT rPinky1
              {
                OFFSET -8.27202 -0.0477905 -0.4584
                CHANNELS 3 Zrotation Xrotation Yrotation
                JOINT rPinky2
                {
                  OFFSET -1.82734 -0.647385 -0.700984
                  CHANNELS 3 Zrotation Xrotation Yrotation
                  End Site
                  {
                    OFFSET -1.69225 -0.51767 -0.607171
                  }
                }
              }
            }
          }
        }
      }
      JOINT lCollar
      {
        OFFSET 2.68224 19.2634 -4.8768
        CHANNELS 3 Zrotation Xrotation Yrotation
        JOINT lShldr
        {
          OFFSET 8.77824 -1.95073 1.46304
          CHANNELS 3 Zrotation Xrotation Yrotation
          JOINT lForeArm
          {
            OFFSET 28.1742 -1.7115 0.48768
            CHANNELS 3 Zrotation Xrotation Yrotation
            JOINT lHand
            {
              OFFSET 22.5879 0.773209 7.07136
              CHANNELS 3 Zrotation Xrotation Yrotation
              JOINT lThumb1
              {
                OFFSET 1.2192 -0.487915 3.41376
                CHANNELS 3 Zrotation Xrotation Yrotation
                JOINT lThumb2
                {
                  OFFSET 3.37035 -0.52449 3.41376
                  CHANNELS 3 Zrotation Xrotation Yrotation
                  End Site
                  {
                    OFFSET 1.78271 -1.18214 1.43049
                  }
                }
              }
              JOINT lIndex1
              {
                OFFSET 7.75947 0.938293 5.60832
                CHANNELS 3 Zrotation Xrotation Yrotation
                JOINT lIndex2
                {
                  OFFSET 2.54057 -0.884171 1.56538
                  CHANNELS 3 Zrotation Xrotation Yrotation
                  End Site
                  {
                    OFFSET 1.62519 -0.234802 1.16502
                  }
                }
              }
              JOINT lMid1
              {
                OFFSET 8.24714 1.18213 3.41376
                CHANNELS 3 Zrotation Xrotation Yrotation
                JOINT lMid2
                {
                  OFFSET 3.10165 -0.590103 1.0647
                  CHANNELS 3 Zrotation Xrotation Yrotation
                  End Site
                  {
                    OFFSET 2.48547 -0.328903 0.83742
                  }
                }
              }
              JOINT lRing1
              {
                OFFSET 8.82822 0.546677 1.51678
                CHANNELS 3 Zrotation Xrotation Yrotation
                JOINT lRing2
                {
                  OFFSET 2.60934 -0.819778 -0.0198488
                  CHANNELS 3 Zrotation Xrotation Yrotation
                  End Site
                  {
                    OFFSET 2.33842 -0.294052 0.168128
                  }
                }
              }
              JOINT lPinky1
              {
                OFFSET 8.27202 -0.0477905 -0.4584
                CHANNELS 3 Zrotation Xrotation Yrotation
                JOINT lPinky2
                {
                  OFFSET 1.82734 -0.647385 -0.700984
                  CHANNELS 3 Zrotation Xrotation Yrotation
                  End Site
                  {
                    OFFSET 1.69225 -0.51767 -0.607171
                  }
                }
              }
            }
          }
        }
      }
    }
  }
  JOINT rButtock
  {
    OFFSET -8.77824 4.35084 1.2192
    CHANNELS 3 Zrotation Xrotation Yrotation
    JOINT rThigh
    {
      OFFSET 0 -1.70687 -2.19456
      CHANNELS 3 Zrotation Xrotation Yrotation
      JOINT rShin
      {
        OFFSET 0 -36.8199 0.73152
        CHANNELS 3 Zrotation Xrotation Yrotation
        JOINT rFoot
        {
          OFFSET 0.73152 -45.1104 -5.12064
          CHANNELS 3 Zrotation Xrotation Yrotation
          End Site
          {
            OFFSET -1.1221 -3.69964 12.103
          }
        }
      }
    }
  }
  JOINT lButtock
  {
    OFFSET 8.77824 4.35084 1.2192
    CHANNELS 3 Zrotation Xrotation Yrotation
    JOINT lThigh
    {
      OFFSET 0 -1.70687 -2.19456
      CHANNELS 3 Zrotation Xrotation Yrotation
      JOINT lShin
      {
        OFFSET 0 -36.8199 0.73152
        CHANNELS 3 Zrotation Xrotation Yrotation
        JOINT lFoot
        {
          OFFSET -0.73152 -45.1104 -5.12064
          CHANNELS 3 Zrotation Xrotation Yrotation
          End Site
          {
            OFFSET 1.1221 -3.69964 12.103
          }
        }
      }
    }
  }
}
MOTION
Frames:	4
Frame Time:	0.00833333
52.7434 85.1388 192.79 0.0 0.0 0.0 0.41059 -0.00336425 0.0117806 0.113459 -0.00539522 0.0196593 -6.72476e-15 7.95139e-16 -1.18028e-16 -2.01238e-14 9.54166e-15 -3.40108e-16 -0.0 0.0 0.0 -0.0 0.0 0.0 -3.28131e-15 1.2424e-17 4.96962e-17 -6.9237e-14 6.21202e-16 -3.97569e-16 -1.211e-12 3.76896e-13 -9.54166e-15 -1.39113e-11 -3.0752e-13 -2.35361e-13 -3.28064e-11 1.45061e-13 -5.08889e-13 -5.66596e-11 2.51264e-13 -8.97712e-13 -3.27983e-11 1.45908e-13 -5.27972e-13 7.73091 5.47488 0.417314 -3.28077e-11 1.44815e-13 -5.1843e-13 2.90554 0.965183 0.102902 -3.2802e-11 1.44318e-13 -5.21611e-13 10.2786 0.731801 0.0259123 -3.2808e-11 1.47101e-13 -5.1843e-13 2.22167 -0.733487 -0.20892 -3.3782e-15 1.2424e-17 -1.49089e-16 -7.27404e-14 4.47265e-16 -2.18663e-15 -1.21736e-12 -3.54433e-13 6.36111e-15 -1.39066e-11 4.15858e-13 -2.35361e-13 -3.28035e-11 1.30354e-13 -5.24792e-13 -5.66405e-11 2.22639e-13 -9.03278e-13 -3.28086e-11 1.28415e-13 -5.21611e-13 -7.73091 5.47488 -0.417314 -3.28034e-11 1.30403e-13 -5.24792e-13 -2.90554 0.965183 -0.102902 -3.28075e-11 1.30303e-13 -5.23201e-13 -10.2786 0.731801 -0.0259123 -3.27995e-11 1.33583e-13 -5.24792e-13 -2.22167 -0.733487 0.20892 -2.03217e-16 0.0 -3.88251e-19 0.770598 -4.17183 -0.0656813 -0.00265483 2.00555 -0.0182699 -0.461823 2.16687 0.0961 2.03217e-16 0.0 3.88251e-19 -0.143241 -2.55995 0.0260686 0.00716325 -0.914091 0.0621722 0.45378 3.47457 -0.121226
53.4241 83.6575 185.306 179.981 -0.231 -161.673 -0.971181 -6.63887 -0.302723 0.673499 3.72615 -0.114846 -1.07316 4.73698 -0.723993 3.19809 -13.3334 -0.52315 -0.0 0.0 0.0 -0.0 0.0 0.0 4.76419e-15 2.15889e-14 3.74779e-15 22.7012 3.08279 0.11219 -4.40143 -2.03727 6.83373 0.0005288 0.511613 0.0718922 -2.85286e-10 5.75766e-10 -5.08691e-10 -4.95026e-10 9.96902e-10 -8.78809e-10 -2.8528e-10 5.75767e-10 -5.08708e-10 7.73091 5.47488 0.417314 -2.85287e-10 5.75767e-10 -5.08699e-10 2.90554 0.965183 0.102902 -2.85281e-10 5.75767e-10 -5.08701e-10 10.2786 0.731801 0.0259123 -2.85287e-10 5.75769e-10 -5.08698e-10 2.22167 -0.733487 -0.20892 4.69159e-15 2.15905e-14 3.54901e-15 -20.8445 4.16686 -1.95004 3.76428 -1.62816 -5.96636 -0.00450882 -1.59005 0.223202 -1.34864e-10 4.84447e-10 4.0341e-10 -2.33223e-10 8.38524e-10 6.96601e-10 -1.34867e-10 4.84446e-10 4.03415e-10 -7.73091 5.47488 -0.417314 -1.34863e-10 4.84448e-10 4.0341e-10 -2.90554 0.965183 -0.102902 -1.34867e-10 4.84447e-10 4.03413e-10 -10.2786 0.731801 -0.0259123 -1.34859e-10 4.8445e-10 4.0341e-10 -2.22167 -0.733487 0.20892 -2.03217e-16 0.0 -3.88251e-19 0.650927 -8.71891 1.73763 0.00464864 4.09553 0.0516752 -0.638958 -4.79582 -1.59881 2.03217e-16 0.0 3.88251e-19 0.234634 -7.129 -2.55523 0.00515617 1.13791 0.0227987 0.492862 1.27609 0.819431
53.4042 83.6546 185.347 179.893 -0.3125 -161.47 -2.51291 -13.6494 -0.647897 1.28646 7.67742 -0.258418 -2.07484 9.7394 -1.50547 6.27665 -27.4356 -1.18201 -0.0 0.0 0.0 -0.0 0.0 0.0 1.3551e-14 4.88056e-14 8.29615e-15 46.6819 6.36624 0.246061 -8.53772 -4.09993 14.0976 -0.000307962 1.04791 0.147272 -5.63377e-10 1.22576e-09 -1.08612e-09 -9.77918e-10 2.12229e-09 -1.87636e-09 -5.63373e-10 1.22576e-09 -1.08614e-09 7.73091 5.47488 0.417314 -5.63377e-10 1.22576e-09 -1.08613e-09 2.90554 0.965183 0.102902 -5.63371e-10 1.22576e-09 -1.08613e-09 10.2786 0.731801 0.0259123 -5.63378e-10 1.22576e-09 -1.08613e-09 2.22167 -0.733487 -0.20892 1.35032e-14 4.8809e-14 8.09737e-15 -42.5733 8.52252 -4.06021 7.39746 -3.30348 -12.3221 0.00475445 -3.33503 0.468776 -2.48784e-10 1.02945e-09 8.73181e-10 -4.3029e-10 1.78183e-09 1.50781e-09 -2.48785e-10 1.02945e-09 8.73188e-10 -7.73091 5.47488 -0.417314 -2.48782e-10 1.02945e-09 8.73181e-10 -2.90554 0.965183 -0.102902 -2.48786e-10 1.02945e-09 8.73185e-10 -10.2786 0.731801 -0.0259123 -2.48779e-10 1.02945e-09 8.7318e-10 -2.22167 -0.733487 0.20892 -2.03217e-16 0.0 -3.88251e-19 0.839163 -13.498 3.69503 0.00687562 6.29906 0.126389 -1.28264 -12.2232 -3.44056 2.03217e-16 0.0 3.88251e-19 0.1711 -11.907 -5.3619 0.00609483 3.29723 -0.0187239 0.613102 -1.04536 1.81904
53.3584 83.6185 185.399 179.687 -0.3686 -161.229 -3.96497 -19.9074 -0.984473 1.84698 11.189 -0.390552 -2.8508 14.2017 -2.23283 8.67506 -39.9849 -1.99327 -0.0 0.0 0.0 -0.0 0.0 0.0 2.08552e-14 6.47419e-14 1.1144e-14 68.067 9.24822 0.340509 -11.7748 -5.76476 20.597 -0.00226646 1.53483 0.215746 -7.90245e-10 1.72701e-09 -1.52505e-09 -1.37176e-09 2.9902e-09 -2.63463e-09 -7.90243e-10 1.72701e-09 -1.52507e-09 7.73091 5.47488 0.417314 -7.90245e-10 1.72701e-09 -1.52506e-09 2.90554 0.965183 0.102902 -7.90238e-10 1.72701e-09 -1.52506e-09 10.2786 0.731801 0.0259123 -7.90245e-10 1.72701e-09 -1.52506e-09 2.22167 -0.733487 -0.20892 2.08311e-14 6.47466e-14 1.09452e-14 -61.667 12.442 -5.97547 10.2911 -4.67301 -17.9535 0.023748 -4.76986 0.671676 -3.38984e-10 1.45308e-09 1.21128e-09 -5.86388e-10 2.51513e-09 2.09161e-09 -3.38984e-10 1.45308e-09 1.21129e-09 -7.73091 5.47488 -0.417314 -3.38982e-10 1.45308e-09 1.21128e-09 -2.90554 0.965183 -0.102902 -3.38986e-10 1.45308e-09 1.21129e-09 -10.2786 0.731801 -0.0259123 -3.38978e-10 1.45308e-09 1.21128e-09 -2.22167 -0.733487 0.20892 -2.03217e-16 0.0 -3.88251e-19 1.30761 -17.7466 5.54845 0.00380436 8.27546 0.193158 -2.2822 -18.6537 -5.24809 2.03217e-16 0.0 3.88251e-19 -0.285321 -16.1389 -7.97469 0.00961673 5.24191 -0.0561809 0.787594 -3.11703 2.70369
